<?xml version="1.0" encoding="utf-8"?>
<!-- Generator: Adobe Illustrator 15.0.0, SVG Export Plug-In . SVG Version: 6.00 Build 0)  -->
<!DOCTYPE svg PUBLIC "-//W3C//DTD SVG 1.1//EN" "http://www.w3.org/Graphics/SVG/1.1/DTD/svg11.dtd">
<svg version="1.1" id="图层_1" xmlns="http://www.w3.org/2000/svg" xmlns:xlink="http://www.w3.org/1999/xlink" x="0px" y="0px"
	 width="759.41px" height="1595.38px" viewBox="0 0 759.41 1595.38" enable-background="new 0 0 759.41 1595.38"
	 xml:space="preserve">
<path fill="none" stroke="#CCCCCC" stroke-width="3" stroke-miterlimit="10" d="M8.339,296.337H4.027c-2.209,0-4.001-1.791-4.001-4
	v-56.667c0-2.209,1.792-4,4.001-4h4.312V296.337z"/>
<path fill="none" stroke="#CCCCCC" stroke-width="3" stroke-miterlimit="10" d="M8.339,432.007H4.027c-2.209,0-4.001-1.791-4.001-4
	v-45.67c0-2.209,1.792-4,4.001-4h4.312V432.007z"/>
<path fill="none" stroke="#CCCCCC" stroke-width="3" stroke-miterlimit="10" d="M8.339,564.673H4.027c-2.209,0-4.001-1.791-4.001-4
	v-45.67c0-2.209,1.792-4,4.001-4h4.312V564.673z"/>
<path fill="none" stroke="#CCCCCC" stroke-width="3" stroke-miterlimit="10" d="M634.693,10.663h-120V5.34c0-2.209,1.791-4,4-4h112
	c2.209,0,4,1.791,4,4V10.663z"/>
<rect x="61.859" y="233.173" fill="#F2F2F2" width="643" height="1138.999"/>
<path fill="#CCCCCC" d="M703.359,1370.672h-640V234.673h640V1370.672z M706.359,231.673h-3h-640h-3v3v1135.999v3h3h640h3v-3V234.673
	V231.673z"/>
<path fill="#CCCCCC" d="M640.426,12.759c32.262,0,61.709,11.053,82.914,31.123c20.695,19.588,32.094,46.18,32.094,74.877v1367.964
	c0,58.447-47.553,106-106,106H117.358c-58.449,0-106-47.553-106-106V118.759c0-27.881,10.655-54.53,30.002-75.037
	c18.564-19.677,42.981-30.963,66.989-30.963H640.426 M640.426,8.759H108.349c-51.743,0-100.991,49.249-100.991,110v1367.964
	c0,60.752,49.248,110,110,110h532.076c60.752,0,110-49.248,110-110V118.759C759.434,58.008,710.186,8.759,640.426,8.759"/>
<circle fill="none" stroke="#CCCCCC" stroke-width="3" stroke-miterlimit="10" cx="384.896" cy="1482.735" r="68.552"/>
<path fill="none" stroke="#CCCCCC" stroke-width="3" stroke-miterlimit="10" d="M452.449,146.794c0,8.284-6.717,15-15,15H331.444
	c-8.285,0-14.999-6.716-14.999-15c0-8.284,6.714-14.999,14.999-14.999h106.005C445.732,131.796,452.449,138.512,452.449,146.794z"/>
<path fill="none" stroke="#CCCCCC" stroke-width="2" stroke-miterlimit="10" d="M412.695,1495.67c0,8.285-6.717,15-15,15h-24.667
	c-8.285,0-15-6.715-15-15v-24.666c0-8.285,6.715-15,15-15h24.667c8.283,0,15,6.715,15,15V1495.67z"/>
<circle fill="none" stroke="#CCCCCC" stroke-width="3" stroke-miterlimit="10" cx="384.359" cy="87.008" r="14"/>
</svg>
