<?xml version="1.0" standalone="no"?>
<!DOCTYPE svg PUBLIC "-//W3C//DTD SVG 1.1//EN" "http://www.w3.org/Graphics/SVG/1.1/DTD/svg11.dtd" >
<svg xmlns="http://www.w3.org/2000/svg">
<metadata>
Created by FontForge 20120731 at Tue Dec 15 09:06:15 2015
 By Ads
</metadata>
<defs>
<font id="iconfont" horiz-adv-x="1024" >
  <font-face 
    font-family="iconfont"
    font-weight="500"
    font-stretch="normal"
    units-per-em="1024"
    panose-1="2 0 6 3 0 0 0 0 0 0"
    ascent="896"
    descent="-128"
    x-height="792"
    bbox="0 -212 1252 896"
    underline-thickness="50"
    underline-position="-100"
    unicode-range="U+0078-F007E"
  />
<missing-glyph horiz-adv-x="374" 
d="M34 0v682h272v-682h-272zM68 34h204v614h-204v-614z" />
    <glyph glyph-name=".notdef" horiz-adv-x="374" 
d="M34 0v682h272v-682h-272zM68 34h204v614h-204v-614z" />
    <glyph glyph-name=".null" horiz-adv-x="0" 
 />
    <glyph glyph-name="nonmarkingreturn" horiz-adv-x="341" 
 />
    <glyph glyph-name="x" unicode="x" horiz-adv-x="1001" 
d="M281 543q-27 -1 -53 -1h-83q-18 0 -36.5 -6t-32.5 -18.5t-23 -32t-9 -45.5v-76h912v41q0 16 -0.5 30t-0.5 18q0 13 -5 29t-17 29.5t-31.5 22.5t-49.5 9h-133v-97h-438v97zM955 310v-52q0 -23 0.5 -52t0.5 -58t-10.5 -47.5t-26 -30t-33 -16t-31.5 -4.5q-14 -1 -29.5 -0.5
t-29.5 0.5h-32l-45 128h-439l-44 -128h-29h-34q-20 0 -45 1q-25 0 -41 9.5t-25.5 23t-13.5 29.5t-4 30v167h911zM163 247q-12 0 -21 -8.5t-9 -21.5t9 -21.5t21 -8.5q13 0 22 8.5t9 21.5t-9 21.5t-22 8.5zM316 123q-8 -26 -14 -48q-5 -19 -10.5 -37t-7.5 -25t-3 -15t1 -14.5
t9.5 -10.5t21.5 -4h37h67h81h80h64h36q23 0 34 12t2 38q-5 13 -9.5 30.5t-9.5 34.5q-5 19 -11 39h-368zM336 498v228q0 11 2.5 23t10 21.5t20.5 15.5t34 6h188q31 0 51.5 -14.5t20.5 -52.5v-227h-327z" />
    <glyph glyph-name="uni3433" unicode="&#x3433;" horiz-adv-x="1000" 
d="M916 256h-243q22 -28 20 -48q0 -2 -1 -5q-6 -23 -42 -22h-24q-14 0 -31 -1q-35 -1 -57 -1q-26 -1 -31 -16q-1 -2 -2 -4.5t-1.5 -5.5t-1.5 -6h414q15 0 25 10.5t10 24.5v39q0 15 -10 25t-25 10zM916 27h-415v-35q1 -11 1 -22v-22v-14v-12v-4h414q15 0 25 10.5t10 24.5v39
q0 26 -24 34q-5 1 -11 1zM916 714h-802q-15 0 -25 -10t-10 -25v-39q0 -7 2.5 -13.5t7.5 -11t11.5 -7.5t13.5 -3h802q15 0 25 10.5t10 24.5v39q0 15 -10 25t-25 10zM916 485h-415l12 -16q18 -24 35 -47l34 -46h334q15 0 25 10.5t10 24.5v39q0 15 -10 25t-25 10zM525.5 271.5
q4.5 16.5 -15.5 40.5q-19 23 -42 54q-12 16 -23.5 32t-23.5 32q-24 33 -46.5 62.5t-39.5 50.5q-18 20 -33 20q-8 -1 -15.5 -6.5t-16.5 -15.5q-18 -23 -41 -55q-14 -18 -48 -65q-13 -17 -24.5 -33t-23.5 -32q-23 -31 -40 -53q-17 -21 -10 -34t32 -13q15 0 35 -1t33 -1
q20 1 25.5 -15t5.5 -44v-43v-93v-45v-35q0 -31 11 -45.5t41 -14.5q22 0 38 1h8h8h10h9q6 0 10.5 0.5t8.5 2t7 3.5q10 5 15 13q2 3 3 6l2 6q1 3 1 7q2 10 2 19v46q0 25 -1 50v44v51v45q0 19 4 29.5t22 11.5q17 0 42 1h15q7 0 13.5 0.5t11.5 0.5q26 -1 30.5 15.5z" />
    <glyph glyph-name="uni3436" unicode="&#x3436;" horiz-adv-x="1000" 
d="M114 376h243q-22 28 -20 48q1 3 1 6q7 22 42 21h12q6 0 13 0.5t15 0.5h16q34 2 57 2q25 1 31 16q2 6 4 15h-414q-15 0 -25 -10t-10 -25v-39q0 -14 10 -24.5t25 -10.5zM114 605h415v18v18q-1 21 -1 44v13v12v4h-414q-15 0 -25 -10t-10 -25v-39q0 -14 10 -24.5t25 -10.5z
M114 -82h802q15 0 25 10.5t10 24.5v39q0 10 -4.5 18t-12.5 12.5t-18 4.5h-802q-15 0 -25 -10t-10 -25v-39q0 -14 10 -24.5t25 -10.5zM114 147h415l-12 17l-34 46l-34 46h-335q-15 0 -25 -10t-10 -25v-39q0 -9 4.5 -17t12.5 -13t18 -5zM505.5 361.5q-4.5 -16.5 15.5 -41.5
q18 -23 41.5 -54t47 -63.5t46 -62.5t40.5 -51q17 -20 32 -19t32 22q18 23 42 55q5 7 12 16.5t10.5 14.5t13.5 18t12 16q12 16 24 32.5t23 31.5q23 31 41 53q16 22 9 35t-31 13h-8h-8q-5 0 -10 0.5t-10 0.5q-19 1 -33 1q-19 -1 -24.5 15t-5.5 44v43q0 17 -0.5 49.5t-0.5 42.5
v45v36q0 31 -10.5 45.5t-41.5 14.5q-21 0 -38 -1h-16h-19q-8 0 -14.5 -1.5t-11.5 -4.5q-10 -5 -15 -14q-2 -4 -3.5 -8.5t-2.5 -9.5q-1 -10 -1 -19v-46q0 -25 0.5 -50.5t0.5 -95.5v-45q0 -18 -4.5 -28.5t-22.5 -11.5q-16 0 -41 -1t-41 -1q-25 1 -29.5 -15.5z" />
    <glyph glyph-name="uniE602" unicode="&#xe602;" 
d="M507 135l67 67l-87 87l-66 -67v-32h54v-55h32zM759 547q-9 9 -19 -1l-200 -200q-10 -9 -0.5 -18.5t18.5 0.5l200 200q10 10 1 19zM805 207v-108q0 -68 -48.5 -116.5t-116.5 -48.5h-475q-68 0 -116.5 48.5t-48.5 116.5v475q0 68 48.5 116.5t116.5 48.5h475q36 0 67 -14
q8 -4 10 -14q2 -9 -5 -16l-28 -28q-8 -8 -18 -5q-13 4 -26 4h-475q-38 0 -65 -27t-27 -65v-475q0 -38 27 -65t65 -27h475q38 0 64.5 27t26.5 65v72q0 7 6 12l36 37q9 9 20.5 4t11.5 -17zM750 629l164 -164l-384 -384h-164v164zM1003 554l-52 -53l-165 165l53 52q16 16 39 16
t39 -16l86 -87q16 -16 16 -38.5t-16 -38.5z" />
    <glyph glyph-name="uniE60A" unicode="&#xe60a;" 
d="M463 30l24 24l383 383q12 12 12 29.5t-12 30.5l-166 165q-5 5 -11 8t-12.5 4t-13 0t-12.5 -4t-11 -8l-383 -383l-24 -24l-17 -18q-7 -6 -10 -14v-1q-1 -4 -2 -6l-67 -249q-4 -15 8 -26q10 -11 26 -7l249 67q2 0 4 1q1 0 2 0.5t2 0.5q4 2 7 4t6 5zM674 617l150 -150
l-375 -376l-150 150zM204 -3l21 73l53 -53zM315 27l-80 81l26 96l14 13l150 -150l-14 -13zM315 27z" />
    <glyph glyph-name="uniE60B" unicode="&#xe60b;" 
d="M737 -146h-453q-90 0 -153.5 64.5t-63.5 154.5v456q0 91 63.5 155.5t153.5 64.5h453q90 0 154 -64.5t64 -155.5v-456q0 -90 -64 -154.5t-154 -64.5zM284 691q-32 0 -62 -12.5t-51.5 -34.5t-34.5 -52t-13 -63v-456q0 -67 47.5 -114.5t113.5 -47.5h453q67 0 114 47.5
t47 114.5v456q0 67 -47 114.5t-114 47.5h-453zM927 98q-3 0 -5 0.5t-4.5 1.5t-4.5 2t-4 3l-188 158l-155 -156q-8 -8 -20.5 -8t-19.5 8l-223 224l-188 -189q-5 -6 -12.5 -8t-15 0t-12.5 7.5t-7 13t0 14.5t7 13l208 209q8 9 20 9t20 -9l223 -224l153 155q8 7 19 7.5t19 -6.5
l208 -174q9 -8 10 -19.5t-6 -20.5q-9 -11 -22 -11zM632 377q-47 0 -81 34t-34 82q0 19 6 36.5t16.5 32t24.5 25t32 16.5t36 6q31 0 57.5 -15.5t42 -42t15.5 -58t-15.5 -58.5t-42 -42.5t-57.5 -15.5zM632 552q-24 0 -41 -17.5t-17 -41.5q0 -16 8 -29.5t21 -21t29 -7.5
q24 0 41 17t17 41q0 36 -32 53q-13 6 -26 6z" />
    <glyph glyph-name="uniE60C" unicode="&#xe60c;" 
d="M686 444q-5 0 -10.5 -1t-10.5 -3.5t-8 -6.5l-182 -182l-103 103q-12 12 -30 11q-7 0 -14 -2.5t-12 -8t-8 -12.5t-3 -14q-1 -17 11 -29l131 -131q4 -4 8.5 -6.5t9.5 -4t10 -1.5t10 1.5t9.5 4t7.5 6.5l210 209q12 12 11 30q0 15 -11 26q-3 2 -6 4.5t-6 3.5l-8 2q-3 1 -6 1z
M514 732q-85 0 -162.5 -33t-134 -89t-89.5 -133.5t-33 -163t33 -163t89.5 -133.5t134 -89.5t162.5 -33.5q114 0 210.5 56t152.5 152.5t56 210.5q0 86 -33 163.5t-89 133.5t-134 89t-163 33zM514 -27q-92 0 -170.5 45.5t-124 124t-45.5 171t45.5 171t124 124t170.5 45.5
t170.5 -45.5t124.5 -124t46 -171t-46 -171t-124.5 -124t-170.5 -45.5zM514 -27z" />
    <glyph glyph-name="uniE60D" unicode="&#xe60d;" 
d="M803 -212h-659q-46 0 -78 32t-32 78v733q0 46 32 78t78 32h513q22 0 31 -18.5t0 -36.5t-31 -18h-513q-15 0 -26 -11t-11 -26v-733q0 -15 11 -26t26 -11h659q15 0 26 11t11 26v586q0 23 18.5 32t36.5 0t18 -32v-586q0 -46 -32 -78t-78 -32zM562 385q-23 26 0 52l364 365
q11 10 26 10t27 -10q19 -21 5 -45l-5 -8l-364 -364q-8 -7 -17.5 -9.5t-19 0t-16.5 9.5zM437 374h-220q-13 0 -22 8t-11.5 18.5t0 21.5t11.5 18.5t22 7.5h220h2h2l2 -1q25 -3 29 -30q4 -28 -19 -39l-1 -1h-1h-1v-1h-1h-1h-1l-1 -1h-1h-1h-1h-1h-1h-1l-1 -1h-2zM657 155h-440
q-22 0 -31 18t0 36.5t31 18.5h440q22 0 31 -18.5t0 -36.5t-31 -18z" />
    <glyph glyph-name="uniE60E" unicode="&#xe60e;" 
d="M855 896h-686q-70 0 -119.5 -49.5t-49.5 -119.5v-686q0 -70 49.5 -119.5t119.5 -49.5h686q70 0 119.5 49.5t49.5 119.5v686q0 70 -49.5 119.5t-119.5 49.5zM214 853h596v-1v-2v-294q0 -11 -4.5 -20.5t-11.5 -16.5t-16.5 -11t-20.5 -4h-490q-22 0 -37.5 15t-15.5 37v294v2
v1zM981 41q0 -52 -37 -89t-89 -37h-686q-52 0 -89 37t-37 89v686q0 52 37 89t89 37h3v-1v-2v-294q0 -40 27.5 -67.5t67.5 -27.5h490q26 0 48 12.5t34.5 34.5t12.5 48v294v2v1h3q52 0 89 -37t37 -89v-686zM659 583q6 0 11 3t8 8t3 11v147q0 6 -3 11t-8 7.5t-11 2.5
q-9 0 -15 -6t-6 -15v-147q0 -3 0.5 -6t2 -5t3.5 -4t4.5 -3.5t5 -2.5t5.5 -1z" />
    <glyph glyph-name="uniE616" unicode="&#xe616;" 
d="M877 555q-5 6 -10.5 13.5t-11.5 15t-13 14.5l-14 16q-7 7 -14.5 15t-14.5 15q-23 23 -46.5 43.5t-43.5 35.5q-31 23 -50 30.5t-32 7.5h-446q-20 0 -36.5 -9.5t-26 -26.5t-9.5 -36v-778q0 -30 21 -51t51 -21h662q30 0 51 21t21 51v562q0 13 -7.5 32t-30.5 50zM758 604
q8 -9 16 -17t14.5 -15.5t13 -14.5t11.5 -13.5t10 -13.5h-138v139q35 -27 73 -65v0zM858 -89q0 -3 -1.5 -5.5t-3.5 -4.5t-4.5 -3t-5.5 -1h-662q-6 0 -10.5 4t-4.5 10v778q0 2 1 4t2.5 4t3 3.5t4 2t4.5 0.5h446v-201q0 -12 8.5 -20.5t20.5 -8.5h202v-562zM764 8l-163 162
q44 55 44 125q0 83 -58.5 141.5t-141.5 58.5t-141.5 -58.5t-58.5 -141.5t58.5 -141.5t141.5 -58.5q66 0 111 32l164 -163q11 -11 22 0l22 21q11 12 0 23zM445 164q-54 0 -92.5 38.5t-38.5 92.5t38.5 92t92.5 38t92.5 -38t38.5 -92t-38.5 -92.5t-92.5 -38.5zM445 164z" />
    <glyph glyph-name="uniE61B" unicode="&#xe61b;" 
d="M527 -131q-91 0 -173.5 35.5t-142.5 95.5t-95.5 143t-35.5 174t35.5 174t95.5 143t142.5 95.5t173.5 35.5q73 0 141.5 -22.5t123.5 -64t96.5 -96.5t64 -123.5t22.5 -141.5q0 -170 -113 -297q-109 -123 -271 -146q-32 -5 -64 -5zM527 -75q68 0 131 22.5t113 62.5t85 94
q-2 0 -4 1t-3 3l-159 158l-136 -137q-1 0 -1 -0.5t-1 -1.5l-19 -19q0 -1 -1 -1h-19v1l-158 158l-149 -149q-5 -5 -13 -3q25 -42 61 -77t78.5 -60t92.5 -38.5t102 -13.5zM527 709q-106 0 -196.5 -52.5t-143 -142.5t-52.5 -197q0 -41 9 -81t25 -77l176 176q4 4 9.5 4t9.5 -4
l20 -20l138 -138l158 158q10 10 20 0l20 -20l163 -162q36 78 36 164q0 64 -19.5 124t-56 108t-84.5 84t-108 56t-124 20z" />
    <glyph glyph-name="uniE61C" unicode="&#xe61c;" 
d="M819 -76h-614q-28 0 -48 20t-20 49v614q0 28 20 48t48 20h341h46h22q7 0 12 -3t8 -8t3 -12q0 -4 -1.5 -8.5t-5 -7.5t-7.5 -4.5t-9 -1.5h-22h-46h-318q-10 0 -18.5 -4t-14.5 -10t-9.5 -14.5t-3.5 -17.5v-569q0 -19 13.5 -32t32.5 -13h568q19 0 32.5 13t13.5 32v364v42v4
q0 9 6.5 16t16.5 7q6 0 11 -3t8 -8.5t3 -11.5v-46v-386q0 -29 -20 -49t-48 -20zM448 226q-7 -7 -16.5 -7t-16 6.5t-6.5 16t6 16.5l409 411q7 7 16.5 7t16 -7t6.5 -16t-6 -16z" />
    <glyph glyph-name="uniE625" unicode="&#xe625;" 
d="M889 557l-156 174q-16 17 -38 17q-12 0 -22 -4.5t-17 -12.5l-156 -174h1q-7 -7 -10.5 -16t-3.5 -19q0 -22 15 -37t37 -15q23 0 38 17h1l65 73v-655q0 -11 4 -20.5t11 -16.5t16.5 -11t20.5 -4q21 0 36 15t15 37v655l66 -73q15 -17 38 -17q14 0 26 7t19 19t7 26
q0 20 -13 35zM460 133h-290q-21 0 -36 -16.5t-15 -39.5t15 -39.5t36 -16.5h290q21 0 36 16.5t15 39.5q0 36 -30 51q-11 4 -21 5zM460 357h-290q-21 0 -36 -16.5t-15 -40.5q0 -15 6.5 -28t18.5 -20.5t26 -7.5h290q21 0 36 16.5t15 39.5q0 37 -30 52q-11 5 -21 5z" />
    <glyph glyph-name="uniE628" unicode="&#xe628;" 
d="M903 79q0 21 -15.5 36.5t-36.5 15.5q-23 0 -39 -18l-65 -72v655q0 14 -7 26t-19 19t-26 7q-21 0 -36.5 -15.5t-15.5 -36.5v-655l-65 72q-7 8 -17 13t-21 5q-22 0 -37 -15.5t-15 -36.5q0 -10 3.5 -19t9.5 -16l156 -174q7 -8 17 -12.5t21 -4.5q23 0 39 17l155 174
q14 15 14 35zM171 468h289q22 0 37 16.5t15 39.5t-15 39t-37 16h-289q-14 0 -26 -7.5t-19 -20t-7 -27.5q0 -7 1.5 -13t4 -11.5t6 -10.5t8 -9t9.5 -6.5t11 -4t12 -1.5zM512 300q0 24 -15 40.5t-37 16.5h-289q-14 0 -26 -7.5t-19 -20.5t-7 -29q0 -11 4 -21.5t11 -18t16.5 -12
t20.5 -4.5h289q32 0 47 32q4 12 5 24z" />
    <glyph glyph-name="uniE62A" unicode="&#xe62a;" horiz-adv-x="1252" 
d="M0 812v-1024h1252v1024h-1252zM1158 -118h-1064v836h1064v-836zM313 292q19 0 36.5 7t30 20t20 30t7.5 36q0 39 -27.5 66.5t-66.5 27.5t-66.5 -27.5t-27.5 -66.5q0 -15 4.5 -29.5t13.5 -26t20.5 -20t26 -13t29.5 -4.5zM345 7l327 300l132 -297l298 410l-76 56l-203 -279
l-118 267l-424 -388z" />
    <glyph glyph-name="uniE633" unicode="&#xe633;" 
d="M756 138h-187l224 -225l225 225h-188v562h-74v-562zM7 225h112v-75h-112v75zM157 225h112v-75h-112v75zM307 225h74v-112h-74v112zM7 -37h75v-112h-75v112zM119 -74h113v-75h-113v75zM269 -74h112v-75h-112v75zM7 113h75v-112h-75v112zM307 75h74v-112h-74v112zM307 675
v-224h-225v224h225zM381 750h-374v-374h374v374zM381 750z" />
    <glyph glyph-name="uniE639" unicode="&#xe639;" 
d="M374.5 111q-6.5 0 -11.5 5t-5 11v362q0 7 5 12t12 5q3 0 6 -1.5t5 -3.5t3.5 -5t1.5 -7v-362q0 -6 -5 -11t-11.5 -5zM514 111q-4 0 -7 1.5t-5 3.5t-3.5 5t-1.5 6v362q0 7 5 12t11.5 5t11.5 -5t5 -12v-362q0 -6 -5 -11t-11 -5zM653 111q-7 0 -12 5t-5 11v362q0 7 5 12t12 5
t11.5 -5t4.5 -12v-362q0 -4 -2 -8t-6 -6t-8 -2zM514 736q13 0 23 -9.5t10 -22.5q0 -9 -4.5 -17t-12 -12t-16.5 -4q-14 0 -23.5 9.5t-9.5 23.5q0 8 4.5 16t12 12t16.5 4zM514 769q-28 0 -47 -19t-19 -46.5t19 -46.5t47 -19q18 0 33 8.5t23.5 24t8.5 33.5q0 27 -19 46t-46 19z
M695 -3h-362q-34 0 -58.5 24t-24.5 58v526q0 7 5 12t12 5q3 0 5.5 -1t4.5 -2.5t3.5 -3.5t2 -4.5t0.5 -5.5v-526q0 -21 14.5 -35.5t35.5 -14.5h362q13 0 24.5 7t18 18t6.5 25v526q0 7 5 12t11.5 5t11.5 -5t5 -12v-526q0 -34 -24 -58t-58 -24zM826 589h-625q-3 0 -5.5 0.5
t-4.5 2t-3.5 4t-2 5t-0.5 4.5q0 4 1 7t3.5 5t5.5 3.5t6 1.5h625q7 0 12 -5t5 -12t-5 -11.5t-12 -4.5z" />
    <glyph glyph-name="uniE63A" unicode="&#xe63a;" 
d="M127 627h766v-487l64 -56v571q0 16 -7.5 29.5t-21 21t-29.5 7.5h-778q-6 0 -11.5 -1t-11 -3t-10 -5.5t-8.5 -7.5t-7 -8.5t-5.5 -9.5t-3.5 -11t-1 -12v-707q0 -24 17 -41t41 -17h605l-51 69h-548v668zM937 -10l-158 134q-24 22 -48 21q60 70 60 162q0 110 -81 184
q-71 66 -169 66q-103 0 -176.5 -73t-73.5 -176.5t73.5 -177t176.5 -73.5q92 0 162 60q-1 -23 21 -48l134 -157q11 -13 26.5 -18t30.5 -1.5t26 14.5q18 17 16.5 41.5t-20.5 41.5zM541 141q-69 0 -117.5 48.5t-48.5 117.5t48.5 118t117.5 49t118 -49t49 -118q0 -22 -6 -44
t-17 -40t-26.5 -33.5t-33.5 -26t-39.5 -16.5t-44.5 -6z" />
    <glyph glyph-name="uniE63F" unicode="&#xe63f;" 
d="M203 320h240v393h238v-393h237l-382 -433zM203 320z" />
    <glyph glyph-name="uniE643" unicode="&#xe643;" 
d="M512 521l-206 -206h132l1 -235l146 -1v236h133zM512 521z" />
    <glyph glyph-name="uniE644" unicode="&#xe644;" 
d="M512 79l206 206h-132l-1 235l-146 1v-236h-133zM512 79z" />
    <glyph glyph-name="uniE645" unicode="&#xe645;" 
d="M996 462q0 3 -1.5 7t-4.5 7l-141 162q-7 7 -17 5h-462q-25 0 -42.5 -17.5t-17.5 -42.5v-727q0 -25 17.5 -43t42.5 -18h566q25 0 42.5 18t17.5 43v606zM933 -117q0 -7 -5.5 -12.5t-13.5 -5.5h-522q-8 0 -13.5 5.5t-5.5 12.5v672q0 8 5.5 13.5t13.5 5.5h391v-112
q0 -23 16.5 -39.5t39.5 -16.5h94v-523zM92 88v630q0 8 6 14t14 6h492q8 0 14 -6t6 -14v-34h69v60q0 25 -17.5 43t-42.5 18h-545q-25 0 -42.5 -18t-17.5 -43v-686q0 -25 17.5 -43t42.5 -18h181v71h-157q-4 0 -7.5 1.5t-6.5 4.5t-4.5 6.5t-1.5 7.5zM684 408h-63v-157h-157v-63
h157v-158h63v158h158v63h-158v157z" />
    <glyph glyph-name="uniE646" unicode="&#xe646;" 
d="M949 -59h-831q-15 0 -25 10.5t-10 24.5v687q0 7 3 13t7.5 11t11 7.5t13.5 2.5h578q6 0 11 -1.5t9.5 -5t7.5 -7.5t4.5 -9.5t1.5 -10.5q0 -15 -10 -25t-24 -10h-544v-618h763v436q0 14 10 24t24 10t24 -10t10 -24v-470q0 -14 -10 -24.5t-24 -10.5zM533 285q-5 0 -9.5 1.5
t-9 4t-7.5 6.5q-9 11 -8 25.5t12 23.5l416 343q11 9 25 8t23.5 -12t8 -25.5t-12.5 -23.5l-416 -343q-5 -4 -10.5 -6t-11.5 -2z" />
    <glyph glyph-name="uniE657" unicode="&#xe657;" 
d="M64 -148l104 45l-59 61zM242 189l169 -172l465 473l-169 172zM841 748q-31 0 -57.5 -15t-42.5 -40l165 -168q16 11 28.5 26.5t19 35t6.5 40.5q0 19 -6 38t-17 33.5t-25.5 26t-33 17.5t-37.5 6zM124 -11l75 -72l179 69l-163 165z" />
    <glyph glyph-name="uniE660" unicode="&#xe660;" 
d="M65 610h280v56h-280v-56zM65 385h280v56h-280v-56zM65 161h280v56h-280v-56zM951 498l-221 213q-8 8 -20 8t-21 -8l-220 -213q-6 -6 -8 -13t0 -14t8 -13q8 -8 20 -8q6 0 11 2t10 6l171 166v-547q0 -12 8.5 -20t20.5 -8q4 0 8.5 1.5t8 4t6.5 6t4.5 7.5t1.5 9v547l171 -166
q5 -5 12.5 -7t15 0t13.5 7q8 8 8 20t-8 20z" />
    <glyph glyph-name="uniE661" unicode="&#xe661;" horiz-adv-x="1205" 
d="M602 -212q-111 0 -211.5 40.5t-176.5 110.5t-131 162.5t-83 198.5q28 107 83 199.5t131 162.5t176.5 110t212 40t212 -40t176.5 -110t131 -162.5t83 -199.5q-23 -85 -62 -161.5t-95 -140.5t-123.5 -111t-150 -73t-172.5 -26zM602.5 752q-98.5 0 -188.5 -35.5t-159 -97
t-119.5 -143.5t-75.5 -176q25 -93 75 -175t119 -143.5t159.5 -97.5t189 -36t188.5 35.5t159 97t119.5 143.5t74.5 176q-24 94 -74 176t-119.5 143.5t-159.5 97t-188.5 35.5zM602.5 29q-112.5 0 -192 79.5t-79.5 191.5q0 74 36.5 136.5t99 98.5t135.5 36q113 0 192 -79.5
t79 -191.5t-79 -191.5t-191.5 -79.5zM602 511q-87 0 -148.5 -62t-61.5 -149t61.5 -149t149 -62t149 62t61.5 149q0 29 -7.5 56t-21 50.5t-33 42.5t-42.5 33t-50.5 21.5t-56.5 7.5z" />
    <glyph glyph-name="uniE66D" unicode="&#xe66d;" 
d="M515 619q-177 0 -359 -204q-56 -62 -89 -114l43 -61q144 -184 297 -238q55 -19 108 -19q71 -2 143.5 30t124.5 78.5t94.5 95t64 80.5t21.5 34l-44 60q-144 185 -297 238q-55 20 -107 20zM514 47q-59 0 -120 26t-106 63.5t-81.5 75t-55.5 63.5l-19 26q7 11 20 28t53.5 61
t83 77.5t104.5 61t121 27.5t120 -26t106 -63.5t81.5 -75t55.5 -63.5l19 -27q-2 -3 -6 -8.5t-17.5 -23t-28.5 -34.5t-38 -40t-46 -42.5t-53 -39.5t-59.5 -34.5t-64.5 -23t-69 -8.5zM1011 300zM947 384zM512 461q-66 0 -113 -47t-47 -113.5t47 -113t113 -46.5t113 46.5t47 113
t-47 113.5t-113 47zM512 205q-26 0 -48 12.5t-35 35t-13 48.5q0 39 28 67.5t68 28.5t68 -28.5t28 -67.5q0 -16 -5 -30.5t-13.5 -26.5t-20.5 -21t-26.5 -13.5t-30.5 -4.5z" />
    <glyph glyph-name="uniE672" unicode="&#xe672;" 
d="M501 786q-109 0 -201 -54t-146 -146t-54 -201t54 -201t146 -146t201 -54t201 54t146 146t54 201t-54 201t-146 146t-201 54zM501 24q-98 0 -181 48.5t-131.5 131.5t-48.5 181t48.5 181t131.5 131.5t181 48.5t181 -48.5t131.5 -131.5t48.5 -181q0 -144 -100 -249
q-98 -103 -240 -111q-11 -1 -21 -1zM739 405h-476q-8 0 -14 -6t-6 -14t6 -14t14 -6h476q8 0 14 6t6 14t-6 14t-14 6z" />
    <glyph glyph-name="uniE687" unicode="&#xe687;" 
d="M879 300q0 -38 -7.5 -74t-21.5 -68.5t-34 -62.5t-44.5 -54.5t-54.5 -44.5t-62.5 -34t-69 -21.5t-73.5 -7.5q-76 0 -143.5 29.5t-118.5 82.5v-59q0 -13 -9 -22.5t-22 -9.5q-9 0 -16 4.5t-11.5 11.5t-4.5 16v146q0 5 1.5 10t4.5 9t7 7t8.5 4.5t10.5 1.5h146q7 0 12.5 -2.5
t10 -7t7 -10t2.5 -12.5q0 -13 -9.5 -22t-22.5 -9h-81q42 -49 101.5 -77t126.5 -28q126 0 215 89t89 215v6l-1 4h3q8 21 29.5 21t29.5 -21h1v-4q1 -4 1 -6v0zM805 436h-146q-13 0 -22.5 9.5t-9.5 22.5t9.5 22t22.5 9h81q-42 49 -101.5 77t-126.5 28q-81 0 -149.5 -39
t-110 -106.5t-43.5 -148.5h-3q-3 -9 -11 -14.5t-18 -5.5q-22 0 -30 20h-1v4v2v2q-1 2 -1 3q0 5 2 11q13 141 117.5 238t247.5 97q38 0 75 -8t70 -22t62.5 -34.5t54.5 -46.5v58q0 13 9 22.5t22 9.5q9 0 16 -4.5t11.5 -11.5t4.5 -16v-146q0 -13 -9.5 -22.5t-22.5 -9.5z
M805 436z" />
    <glyph glyph-name="uniE691" unicode="&#xe691;" 
d="M694 623v144h-402q-48 -48 -92.5 -92t-87.5 -87v-611h217v-144h583v790h-218zM292 715v-128h-130q7 7 31.5 31t35.5 35t29.5 29t33.5 33zM329 13h-182v538h182v180h328v-108h-146q-31 -30 -47.5 -46t-42.5 -42l-48 -48l-44 -44v-430zM512 572v-129h-131v1q26 25 72.5 71
t57.5 57h1zM876 -131h-510v539h182v179h328v-718z" />
    <glyph glyph-name="uniE693" unicode="&#xe693;" 
d="M256 76h-32v576h448v-32h32v32q0 4 -1 9t-9 14t-22 9h-448q-14 0 -22 -8t-9 -16l-1 -8v-576q0 -4 1 -9t9 -14t22 -9h32v32zM320 -84q-14 0 -22 8t-9 16l-1 8v608q0 4 1 9t9 14t22 9h480q14 0 22 -8t9 -16l1 -8v-416l-224 -224h-288zM320 -52h288l192 192v416h-480v-608z
M605 -79h-4q-3 2 -14 13t-11 14v192q0 4 1 9t9 14t22 9h224l-1 -1l-3 -3q-3 -3 -5.5 -5t-5 -5t-5.5 -6l-4 -4l-2 -2l-194 -222q-2 -2 -3.5 -2.5t-3.5 -0.5zM608 140v-192l192 192h-192zM736 364h-256v32h256v-32zM736 268h-256v32h256v-32zM608 492h-96v-32h96v32zM384 396
h64v-32h-64v32zM384 300h64v-32h-64v32z" />
    <glyph glyph-name="uniE6B2" unicode="&#xe6b2;" 
d="M512 -159q-91 0 -174 35.5t-143 95t-95.5 142.5t-35.5 174t35.5 174t95.5 143t143 95.5t174 35.5t174 -35.5t142.5 -95.5t95 -143t35.5 -174t-35.5 -174t-95 -142.5t-142.5 -95t-174 -35.5zM512 -104q148 0 258.5 98t129.5 243q-46 26 -98 29.5t-95.5 -8.5t-93 -40
t-83.5 -54t-76 -62q-77 -66 -213 -97q36 -34 78.5 -58t91.5 -37.5t101 -13.5zM512 680q-80 0 -152.5 -31t-125 -83.5t-83.5 -125t-31 -152.5q0 -131 79 -236q52 8 97 24.5t75.5 37t62.5 45t58 47.5t61.5 46t73.5 38q154 62 276 13q-2 62 -23 119.5t-57.5 104t-84 81
t-106 53.5t-120.5 19zM339.5 339q-26.5 0 -45.5 19t-19 45.5t19 45t45 18.5q17 0 32 -8.5t23.5 -23t8.5 -32.5q0 -26 -18.5 -45t-45 -19z" />
    <glyph glyph-name="uniE6D9" unicode="&#xe6d9;" 
d="M994 -44l-187 187l-2 2q-1 1 -3 2q26 28 46 59.5t35 65.5q34 82 34 172q0 44 -8.5 87t-25.5 84q-34 79 -95 139q-30 31 -65 54.5t-74 40.5q-41 17 -84 25.5t-88 8.5q-89 0 -171 -34q-79 -34 -139.5 -94.5t-94.5 -139.5q-17 -41 -25.5 -84t-8.5 -87q0 -90 34 -172
q34 -79 94.5 -139.5t139.5 -94.5q82 -34 171.5 -34t171.5 34q59 25 108 66q2 -3 5 -6l187 -187q2 -2 4 -3.5t4.5 -2.5t4.5 -1.5t4.5 -1t5.5 -0.5q13 0 22 9q6 6 8.5 14.5t0 16.5t-8.5 14zM477.5 67q-101.5 0 -188.5 50.5t-137.5 137.5t-50.5 189q0 61 19 118t54 103.5
t81.5 81.5t103.5 54t118 19q52 0 100.5 -13.5t89.5 -38t76 -59t59.5 -76t38 -90t13.5 -99.5q0 -102 -50.5 -189t-137.5 -137.5t-188.5 -50.5z" />
    <glyph glyph-name="uniE758" unicode="&#xe758;" 
d="M871 -202h-718q-59 0 -101 42t-42 101v718q0 39 19 72t52 52t72 19h718q59 0 101 -42t42 -101v-718q0 -59 -42 -101t-101 -42zM656 658h-287v-144h287v144zM872 586q0 19 -10 36t-26.5 26.5t-35.5 9.5v-216q0 -29 -21 -50t-51 -21h-431q-29 0 -50 21t-21 50v216
q-30 0 -51 -21t-21 -51v-574q0 -20 9.5 -36.5t26 -26t36.5 -9.5h574q30 0 51 21t21 51v574zM656 84h-287q-30 0 -51 21t-21 50q0 15 6 28.5t15.5 23t23 15t27.5 5.5h287q30 0 51 -21t21 -50.5t-21 -50.5t-51 -21z" />
    <glyph glyph-name="uniE75A" unicode="&#xe75a;" 
d="M305 260zM730 427zM596 554zM795 494q-24 33 -60 70q-37 37 -70 61q-17 12 -30.5 19t-20 8.5t-13.5 1.5h-346q-23 0 -39.5 -16.5t-16.5 -39.5v-603q0 -15 7.5 -28t20.5 -20.5t28 -7.5h514q15 0 28 7.5t20.5 20.5t7.5 28v436q0 23 -30 63zM703 532q30 -30 51 -57h-108v108
q27 -21 57 -51v0zM780 -5q0 -5 -3 -8t-8 -3h-514q-3 0 -5.5 1.5t-4 4t-1.5 5.5v603q0 5 3 8t8 3h346v-156q0 -9 6.5 -15.5t16.5 -6.5h156v-436zM707 70l-126 126q34 42 34 96q0 65 -45.5 110.5t-109.5 45.5t-109.5 -45.5t-45.5 -110t45.5 -110t109.5 -45.5q51 0 86 25
l127 -126q9 -9 17 0l17 16q9 9 0 18zM460 191q-42 0 -72 29.5t-30 71.5q0 28 14 51.5t37 37t51 13.5q20 0 39 -8t32.5 -21.5t21.5 -32.5t8 -40q0 -16 -5 -31.5t-14.5 -28t-22 -22t-28 -14.5t-31.5 -5z" />
    <glyph glyph-name="uniE7B0" unicode="&#xe7b0;" 
d="M696 439v-428h57v428h143l-172 171l-171 -171h143zM125 648h86v-57h-86v57zM239 648h86v-57h-86v57zM353 648h58v-86h-58v86zM125 448h57v-85h-57v85zM211 420h85v-57h-85v57zM325 420h86v-57h-86v57zM125 562h57v-85h-57v85zM353 534h58v-86h-58v86zM353 191v-171h-171
v171h171zM411 248h-286v-285h286v285z" />
    <glyph glyph-name="uF007E" unicode="&#xf007e;" 
d="M206 832h-122q-3 0 -5.5 -0.5t-4.5 -2t-4 -3.5t-3.5 -4t-2 -4.5t-0.5 -5.5v-122q0 -5 2.5 -10t7.5 -7.5t10 -2.5q4 0 8 1.5t6.5 4.5t4 6.5t1.5 7.5v102h102q5 0 10 2.5t7.5 7t2.5 10t-2.5 10.5t-7.5 7.5t-10 2.5zM327 792h122q8 0 14 5.5t6 14.5q0 2 -0.5 4.5t-1.5 4.5
t-2 3.5t-3 3t-4 2.5t-4.5 1.5t-4.5 0.5h-122q-8 0 -14 -6t-6 -14q5 -17 20 -20zM692 832h-121q-9 0 -14.5 -6t-5.5 -14.5t5.5 -14t14.5 -5.5h121q9 0 15 5.5t6 14.5q0 3 -1 6t-3 5.5t-4.5 4.5t-5.5 3t-7 1zM936 832h-122q-8 0 -14 -6t-6 -14.5t6 -14t14 -5.5h101v-102
q0 -8 6 -14t15 -6q2 0 4 0.5t3.5 1t3.5 1.5t3 2.5t2.5 3.5t2 3.5t1 3.5t0.5 4v122q0 8 -6 14t-14 6zM936 589q-4 0 -7 -1t-5.5 -3t-4 -4.5t-3 -5.5t-1.5 -6v-122q0 -9 6 -14.5t15 -5.5q5 0 10 2.5t7.5 7t2.5 10.5v122q0 5 -2.5 9.5t-7.5 7.5t-10 3zM936 345q-4 0 -8 -1.5
t-6.5 -4t-4.5 -6.5t-2 -8v-121q0 -9 6 -15t15 -6q5 0 10 3t7.5 7.5t2.5 10.5v121q0 4 -1.5 8t-4.5 6.5t-6.5 4t-7.5 1.5zM935.5 102q-8.5 0 -14.5 -6t-6 -14v-101h-101q-5 0 -10 -3t-7.5 -7.5t-2.5 -10.5q0 -8 6 -14t14 -6h122q5 0 10 2.5t7.5 7.5t2.5 10v122q0 8 -6 14
t-14.5 6zM692 -19h-121q-9 0 -14.5 -6t-5.5 -15q0 -5 2.5 -10t7 -7.5t10.5 -2.5h121q9 0 15 6t6 14.5t-6 14.5t-15 6zM449 -19h-122q-8 0 -14 -6t-6 -15q0 -4 1.5 -7.5t4.5 -6.5t6.5 -4.5t7.5 -1.5h122q6 0 10.5 2.5t7 7.5t2.5 10.5t-2.5 10t-7 7.5t-10.5 3zM206 -19h-102
v101q0 8 -5.5 14t-14.5 6q-5 0 -10 -2.5t-7.5 -7.5t-2.5 -10v-122q0 -8 6 -14t14 -6h122q20 0 20 20q0 9 -6 15t-14 6zM84.5 183q8.5 0 14 6t5.5 15v121q0 3 -0.5 5.5t-2 5t-3 4t-4 3t-5 2t-5.5 0.5q-5 0 -10 -2.5t-7.5 -7t-2.5 -10.5v-121q0 -9 6 -15t14.5 -6zM84 427
q9 0 14.5 5.5t5.5 14.5v122q0 15 -15 19q-2 1 -5 1q-16 -5 -20 -20v-122q0 -6 2.5 -10.5t7.5 -7t10 -2.5zM345 345h325q16 0 28 12t12 29t-12 29t-28 12h-325q-17 0 -28.5 -12t-11.5 -29q0 -11 5 -20.5t14.5 -15t20.5 -5.5z" />
  </font>
</defs>
</svg>
